<?xml version="1.0" encoding="utf-8"?>
<!-- Svg Vector Icons : http://www.onlinewebfonts.com/icon -->
<!DOCTYPE svg PUBLIC "-//W3C//DTD SVG 1.1//EN" "http://www.w3.org/Graphics/SVG/1.1/DTD/svg11.dtd">
<svg version="1.1" xmlns="http://www.w3.org/2000/svg" xmlns:xlink="http://www.w3.org/1999/xlink" x="0px" y="0px" viewBox="0 0 1000 1000" enable-background="new 0 0 1000 1000" xml:space="preserve">
<metadata> Svg Vector Icons : http://www.onlinewebfonts.com/icon </metadata>
<g><path d="M826.9,10H173.1C83.5,10,10,82.7,10,172.3v517.6c0,88.8,62.8,147,153.1,147h203.7L500,990l133.2-153.1h203.7c90.3,0,153.1-58.2,153.1-147.8V172.3C990,82.7,916.5,10,826.9,10z M928.8,683.8c0,45.2-46.7,91.9-91.9,91.9h-245L500,898.1l-91.9-122.5h-245c-45.2,0-91.9-46.7-91.9-91.9V163.1c0-45.2,46.7-91.9,91.9-91.9h673.8c45.2,0,91.9,46.7,91.9,91.9V683.8z"/></g>
</svg>